<svg width="19" height="19" viewBox="0 0 19 19" fill="none" xmlns="http://www.w3.org/2000/svg">
<path d="M2.51897 9.17562C2.51897 5.50492 5.50492 2.51897 9.17562 2.51897C12.3928 2.51897 15.1453 4.81569 15.7223 7.979L15.7402 8.07104H18.2839L18.2659 7.94308C17.6553 3.41476 13.7466 0 9.17562 0C4.11522 0 0 4.11522 0 9.17562C0 12.6981 2.06098 15.9513 5.25123 17.4667L5.41288 17.543V14.6626L5.36573 14.6289C3.58314 13.3806 2.51897 11.3421 2.51897 9.17562Z" fill="#82FA00"/>
<path d="M15.7217 10.3721C15.2301 13.0662 13.113 15.1968 10.4346 15.7109V4.19141H7.91787V15.7109H7.91113V18.2635L8.00992 18.277C8.40729 18.3286 8.80018 18.3533 9.17736 18.3533C13.7483 18.3533 17.657 14.9386 18.2677 10.4103L18.2856 10.2823H15.742L15.724 10.3743L15.7217 10.3721Z" fill="#82FA00"/>
</svg>
