<svg xmlns="http://www.w3.org/2000/svg" width="78" height="76" viewBox="0 0 78 76" fill="none" class="mdl-js">
<path d="M77.637 10.8305L77.6152 10.845L77.637 10.8305L66.218 7.71746L54.0475 14.7707C54.0475 14.7707 54.3815 26.8229 54.5503 41.6678C54.5848 44.665 54.1872 47.0143 53.5447 48.8604V25.556L53.5247 25.5686L50.0524 24.727L53.5737 22.68C53.5737 20.4828 52.6444 16.5607 48.0866 10.6586C48.0866 10.6586 42.6285 2.13932 30.7448 0.242528C30.7448 0.242528 29.8227 0 28.3125 0C26.6516 0 24.2793 0.293206 21.6346 1.52576L10.526 6.56093C9.97598 6.77088 9.42781 7.01703 8.89053 7.30299L8.85423 7.31928H8.85786C7.92125 7.81882 7.01368 8.436 6.17509 9.2034C1.0673 13.8856 0 19.5543 0 25.6012C0 32.3938 0.491902 38.5258 2.88425 43.7564C8.94862 57.0122 20.531 56.8964 23.2247 56.8964C28.9786 56.8964 31.4744 54.2032 31.4744 54.2032L31.5307 61.7994C31.7612 71.8915 38.7114 72.4327 38.7114 72.4327L47.1318 74.6444C48.5077 75.5421 50.2484 76 52.1997 76C61.8017 76 76.4916 64.9505 77.6896 40.9674C77.9383 35.9847 77.9982 33.7386 77.9982 33.7386L77.637 10.8305ZM66.4721 9.66493L75.4933 12.1246L65.864 17.9326L56.536 15.4241L66.4721 9.66493ZM56.3636 41.6479C56.2402 30.8192 56.0278 21.3895 55.9225 17.1308L65.6516 19.7479C65.8658 24.0573 66.3468 35.8417 65.5645 42.4189C64.8439 48.464 62.9144 57.9298 57.6015 60.5126C57.1822 60.7171 56.8065 60.8094 56.467 60.8094C53.9821 60.8094 53.5519 55.8032 53.5102 52.891C55.456 50.1689 56.418 46.3989 56.3636 41.6479ZM51.303 26.8935L42.4106 32.2001L42.3598 32.182L24.9182 27.4636L29.004 24.9985L43.0623 28.7885C43.0623 28.7866 43.0623 28.7866 43.0623 28.7848L47.7889 26.0392L51.303 26.8935ZM15.209 20.4954C16.4342 18.1516 18.1622 17.7498 19.2005 17.7516C19.7414 17.7516 20.0972 17.8602 20.0972 17.8602C21.0229 18.0665 21.8415 18.3453 22.5712 18.671C22.3062 20.1045 22.1519 21.8655 22.1156 23.9469C22.0684 26.5804 22.2245 28.7903 22.2499 29.116C22.2499 29.335 22.2608 30.3196 22.446 31.6572V37.9122L24.989 38.6127C25.8766 39.8235 26.9602 40.7284 28.2163 41.3022C27.9912 43.1429 27.0691 45.7437 23.644 45.7437C22.6747 45.7437 21.5057 45.5356 20.0972 45.0433C13.9784 42.9076 14.0782 33.411 14.0782 33.411C14.0782 33.411 13.3449 24.0592 15.209 20.4954ZM24.2593 19.5977C26.2323 20.9244 27.247 22.5768 27.7353 23.6501L23.9307 25.9451C23.9017 23.9705 23.9634 21.5886 24.2593 19.5977ZM22.3843 3.17278C22.3897 3.17097 22.3951 3.16735 22.4006 3.16554C24.8056 2.0452 26.9421 1.80991 28.3107 1.80991C29.4742 1.80991 30.2129 1.97642 30.2855 1.99452C30.3491 2.01262 30.3908 2.01986 30.4562 2.03072C35.0085 2.7565 39.0944 4.58451 42.6012 7.46408C45.2423 9.63235 46.5473 11.6196 46.5564 11.6341C46.5854 11.6794 46.6163 11.7228 46.6472 11.7644C48.3897 14.0196 51.2086 18.1371 51.6878 21.6827L42.9189 26.7795C42.5032 23.7732 41.0892 19.5507 37.4408 14.8268C37.4408 14.8268 31.9827 7.39349 20.099 5.4967C20.099 5.4967 19.1134 5.34467 17.5996 5.34467L22.3843 3.17278ZM43.7793 71.8915L39.1743 70.6825L39.0799 70.6481L38.9328 70.6354C38.5734 70.5739 33.7561 69.4083 33.3459 61.6999L33.2896 53.1046L33.2696 50.1364C30.1603 53.291 27.7534 55.0973 23.2247 55.0865C15.445 55.0684 8.26431 51.1553 4.53602 43.0053C2.14549 37.7801 1.81514 31.5522 1.81514 25.6012C1.81514 22.2927 2.1582 19.7027 2.89696 17.453C3.7773 14.7707 5.25119 12.5083 7.40212 10.5355C10.6149 7.59077 15.1636 7.15096 17.5905 7.15096C18.8974 7.15096 19.7723 7.27403 19.8195 7.28127C25.5226 8.19347 29.6049 10.4776 32.0244 12.235C34.6655 14.1517 35.9669 15.8802 35.976 15.891L35.9887 15.9091L36.0014 15.9272C39.3249 20.2294 40.5683 23.9144 41.013 26.3614L29.545 23.27C28.9732 21.8728 27.6155 19.4439 24.6586 17.7027C23.9217 17.2973 23.9217 17.2973 23.0141 16.8847C22.2699 16.5752 21.4476 16.3091 20.5401 16.1046C20.3223 16.0467 19.8431 15.9417 19.1987 15.9417C17.8319 15.9417 15.2889 16.4249 13.5972 19.6593C11.5951 23.489 12.1632 32.1657 12.2612 33.4761C12.2649 34.5747 12.4954 44.3048 19.4946 46.7482C21.0193 47.2803 22.4133 47.55 23.6421 47.55C26.069 47.55 27.5175 46.5057 28.3052 45.6279C30.4271 43.2641 30.1004 39.7076 30.0568 39.3095L29.9207 38.0914L28.7354 37.7656L24.2593 36.5331V29.1631L41.2526 33.7603C41.2689 37.4579 41.3216 52.1562 41.249 60.6013C41.1963 66.7369 42.2128 69.8372 43.8083 71.8444C43.7938 71.868 43.7956 71.8662 43.7793 71.8915ZM75.8781 40.8769C75.2247 53.9553 70.5416 61.9153 66.728 66.288C64.5063 68.8364 61.9143 70.9123 59.2351 72.2879C56.8156 73.5313 54.3833 74.1883 52.2015 74.1883C50.5824 74.1883 49.1648 73.8154 48.1011 73.1132C47.0737 72.4345 46.217 71.83 45.5073 71.039C44.685 70.2481 43.8664 68.0074 43.8664 68.0074C43.3037 66.1758 43.0405 63.7378 43.0677 60.6157C43.0913 57.928 43.1022 54.5905 43.104 51.1734C43.1095 44.4026 43.0859 36.9548 43.0732 33.9775L44.6632 32.9675L51.7277 28.7504V50.8097C51.7096 51.1463 51.6333 52.8784 51.7767 54.8602C52.0091 58.0801 52.6825 60.2375 53.8369 61.4574C54.5593 62.2193 55.4687 62.6229 56.467 62.6229C57.0933 62.6229 57.7413 62.4619 58.3965 62.1433C61.1864 60.7859 63.4118 57.8375 65.0145 53.3779C66.08 50.4078 66.8714 46.7935 67.3669 42.6361C68.2092 35.5593 67.6374 22.9081 67.4377 19.0982L75.8727 14.0123L76.1849 33.7295C76.174 34.0408 76.105 36.3213 75.8781 40.8769Z" fill="#758B70"/>
</svg>