<svg width="63" height="80" viewBox="0 0 63 118" fill="none" xmlns="http://www.w3.org/2000/svg">
<path d="M34.2982 103.229L33.6515 102.582L33.6458 102.588L33.6403 102.594L34.2982 103.229ZM21.4028 103.229L20.7448 103.864L20.7504 103.87L20.7561 103.876L21.4028 103.229ZM21.4028 90.608L20.7561 89.9613L21.4028 90.608ZM34.2982 90.608L33.6403 91.2433L33.6514 91.2548L33.663 91.266L34.2982 90.608ZM33.6403 102.594C32.1133 104.175 30.2205 104.967 27.8962 104.967V106.796C30.6935 106.796 33.0687 105.819 34.9562 103.864L33.6403 102.594ZM27.8962 104.967C25.5714 104.967 23.6415 104.174 22.0495 102.582L20.7561 103.876C22.7003 105.82 25.0994 106.796 27.8962 106.796V104.967ZM22.0607 102.594C20.5167 100.995 19.7565 99.1184 19.7565 96.9186H17.9274C17.9274 99.5965 18.8744 101.927 20.7448 103.864L22.0607 102.594ZM19.7565 96.9186C19.7565 94.6517 20.5204 92.7837 22.0495 91.2547L20.7561 89.9613C18.8707 91.8467 17.9274 94.1858 17.9274 96.9186H19.7565ZM22.0495 91.2547C23.6415 89.6626 25.5714 88.8703 27.8962 88.8703V87.0412C25.0994 87.0412 22.7003 88.0171 20.7561 89.9613L22.0495 91.2547ZM27.8962 88.8703C30.2205 88.8703 32.1133 89.6618 33.6403 91.2433L34.9562 89.9728C33.0687 88.0179 30.6935 87.0412 27.8962 87.0412V88.8703ZM33.663 91.266C35.2492 92.7975 36.0359 94.6621 36.0359 96.9186H37.865C37.865 94.1754 36.8836 91.8329 34.9335 89.9501L33.663 91.266ZM36.0359 96.9186C36.0359 99.1081 35.253 100.981 33.6515 102.582L34.9449 103.876C36.8797 101.941 37.865 99.6068 37.865 96.9186H36.0359Z" fill="#111111"/>
<path d="M50.1185 80V80.9146H51.0331V80H50.1185ZM36.0341 80H35.1195V80.9146H36.0341V80ZM34.205 49.0875L33.4482 49.601L33.4544 49.6101L33.4607 49.6191L34.205 49.0875ZM19.7547 80V80.9146H20.6693V80H19.7547ZM5.7618 80H4.84723V80.9146H5.7618V80ZM5.7618 15.98V15.0654H4.84723V15.98H5.7618ZM19.7547 15.98H20.6693V15.0654H19.7547V15.98ZM19.7547 42.3197H18.8402L20.5668 42.7404L19.7547 42.3197ZM34.022 35.6433C39.2182 35.6433 42.9558 37.0926 45.4124 39.8423C47.8865 42.6117 49.2039 46.8572 49.2039 52.7458H51.0331C51.0331 46.6229 49.6678 41.86 46.7764 38.6237C43.8675 35.3677 39.5569 33.8142 34.022 33.8142V35.6433ZM49.2039 52.7458V80H51.0331V52.7458H49.2039ZM50.1185 79.0854H36.0341V80.9146H50.1185V79.0854ZM36.9487 80V57.3186H35.1195V80H36.9487ZM36.9487 57.3186C36.9487 53.4814 36.3377 50.4998 34.9492 48.5559L33.4607 49.6191C34.5111 51.0896 35.1195 53.5954 35.1195 57.3186H36.9487ZM34.9617 48.574C33.5755 46.531 31.2486 45.6121 28.2603 45.6121V47.4413C30.8813 47.4413 32.5175 48.2296 33.4482 49.601L34.9617 48.574ZM28.2603 45.6121C25.2293 45.6121 22.8082 46.55 21.1724 48.5551C19.5658 50.5246 18.8402 53.3765 18.8402 56.9528H20.6693C20.6693 53.5783 21.3613 51.2173 22.5898 49.7113C23.7892 48.2411 25.6208 47.4413 28.2603 47.4413V45.6121ZM18.8402 56.9528V80H20.6693V56.9528H18.8402ZM19.7547 79.0854H5.7618V80.9146H19.7547V79.0854ZM6.67637 80V15.98H4.84723V80H6.67637ZM5.7618 16.8946H19.7547V15.0654H5.7618V16.8946ZM18.8402 15.98V42.3197H20.6693V15.98H18.8402ZM20.5668 42.7404C22.9955 38.0525 27.3882 35.6433 34.022 35.6433V33.8142C26.8764 33.8142 21.7575 36.4656 18.9427 41.899L20.5668 42.7404Z" fill="#111111"/>
</svg>
