<svg width="95" height="104" viewBox="0 0 95 124" fill="none" xmlns="http://www.w3.org/2000/svg">
<path d="M85.776 0.614258C81.6395 0.614258 78.1519 19.3894 77.0643 45.0472C74.5846 19.3894 66.6378 0.614258 57.212 0.614258C48.3698 0.614258 40.8255 17.1471 37.8817 40.3851C36.3808 17.1471 32.5307 0.614258 28.0208 0.614258C23.5108 0.614258 19.5665 17.5565 18.1055 41.2437C16.8475 17.5528 13.5049 0.614258 9.57506 0.614258C4.57209 0.614258 0.511719 28.1159 0.511719 62.0401C0.511719 95.9644 4.56847 123.466 9.57506 123.466C13.5013 123.466 16.8475 106.524 18.1055 82.8366C19.5665 106.527 23.4565 123.466 28.0208 123.466C32.5851 123.466 36.3808 106.933 37.8817 83.6951C40.8255 106.933 48.3698 123.466 57.212 123.466C66.6342 123.466 74.5846 104.691 77.0643 79.033C78.1519 104.691 81.6395 123.466 85.776 123.466C90.779 123.466 94.8393 95.9644 94.8393 62.0401C94.8393 28.1159 90.7826 0.614258 85.776 0.614258Z" fill="#4F6E6A"/>
</svg>
